<?xml version="1.0" standalone="no"?><!DOCTYPE svg PUBLIC "-//W3C//DTD SVG 1.1//EN" "http://www.w3.org/Graphics/SVG/1.1/DTD/svg11.dtd"><svg t="1594711314196" class="icon" viewBox="0 0 1024 1024" version="1.1" xmlns="http://www.w3.org/2000/svg" p-id="3194" xmlns:xlink="http://www.w3.org/1999/xlink" width="200" height="200"><defs><style type="text/css"></style></defs><path d="M28.064 441.92a255.776 255.776 0 0 0 174.826667 186.997333 256.106667 256.106667 0 0 0 249.472-57.994666 255.52 255.52 0 0 0 74.218666-244.906667 255.776 255.776 0 0 0-174.826666-186.944 256.106667 256.106667 0 0 0-249.429334 57.994667A255.52 255.52 0 0 0 28.053333 441.909333z" fill="#3C64B9" opacity=".5" p-id="3195"></path><path d="M731.754667 293.333333H245.333333c-10.304 0-19.637333 4.181333-26.4 10.933334A37.216 37.216 0 0 0 208 330.666667v426.666666c0 10.304 4.181333 19.637333 10.933333 26.4A37.216 37.216 0 0 0 245.333333 794.666667h533.333334c10.304 0 19.637333-4.181333 26.4-10.933334A37.216 37.216 0 0 0 816 757.333333V373.92L731.754667 293.333333z" fill="#FFFFFF" p-id="3196"></path><path d="M746.666667 297.749333c-7.36 0-14.026667 2.986667-18.858667 7.808a26.581333 26.581333 0 0 0-7.808 18.858667V362.666667c0 7.36 2.986667 14.026667 7.808 18.858666A26.581333 26.581333 0 0 0 746.666667 389.333333h38.250666a26.666667 26.666667 0 0 0 18.858667-45.525333l-38.250667-38.250667A26.666667 26.666667 0 0 0 746.666667 297.749333z" fill="#FFFFFF" p-id="3197"></path><path d="M554.666667 416a10.666667 10.666667 0 0 1 10.666666 10.666667v234.666666a10.666667 10.666667 0 0 1-21.333333 0V426.666667a10.666667 10.666667 0 0 1 10.666667-10.666667z m32 21.333333a10.666667 10.666667 0 0 1 10.666666 10.666667v192a10.666667 10.666667 0 0 1-21.333333 0V448a10.666667 10.666667 0 0 1 10.666667-10.666667z m-64 10.666667a10.666667 10.666667 0 0 1 10.666666 10.666667v170.666666a10.666667 10.666667 0 0 1-21.333333 0V458.666667a10.666667 10.666667 0 0 1 10.666667-10.666667z m-128 10.666667a10.666667 10.666667 0 0 1 10.666666 10.666666v149.333334a10.666667 10.666667 0 0 1-21.333333 0V469.333333a10.666667 10.666667 0 0 1 10.666667-10.666666z m224 0a10.666667 10.666667 0 0 1 10.666666 10.666666v149.333334a10.666667 10.666667 0 0 1-21.333333 0V469.333333a10.666667 10.666667 0 0 1 10.666667-10.666666z m-128 21.333333a10.666667 10.666667 0 0 1 10.666666 10.666667v106.666666a10.666667 10.666667 0 0 1-21.333333 0V490.666667a10.666667 10.666667 0 0 1 10.666667-10.666667z m-64 0a10.666667 10.666667 0 0 1 10.666666 10.666667v106.666666a10.666667 10.666667 0 0 1-21.333333 0V490.666667a10.666667 10.666667 0 0 1 10.666667-10.666667z m-64 0a10.666667 10.666667 0 0 1 10.666666 10.666667v106.666666a10.666667 10.666667 0 0 1-21.333333 0V490.666667a10.666667 10.666667 0 0 1 10.666667-10.666667z m288 0a10.666667 10.666667 0 0 1 10.666666 10.666667v106.666666a10.666667 10.666667 0 0 1-21.333333 0V490.666667a10.666667 10.666667 0 0 1 10.666667-10.666667z m-192 21.333333a10.666667 10.666667 0 0 1 10.666666 10.666667v64a10.666667 10.666667 0 0 1-21.333333 0v-64a10.666667 10.666667 0 0 1 10.666667-10.666667z m-128 0a10.666667 10.666667 0 0 1 10.666666 10.666667v64a10.666667 10.666667 0 0 1-21.333333 0v-64a10.666667 10.666667 0 0 1 10.666667-10.666667z m352 0a10.666667 10.666667 0 0 1 10.666666 10.666667v64a10.666667 10.666667 0 0 1-21.333333 0v-64a10.666667 10.666667 0 0 1 10.666667-10.666667z m-384 21.333334a10.666667 10.666667 0 0 1 10.666666 10.666666v21.333334a10.666667 10.666667 0 0 1-21.333333 0v-21.333334a10.666667 10.666667 0 0 1 10.666667-10.666666z m416 0a10.666667 10.666667 0 0 1 10.666666 10.666666v21.333334a10.666667 10.666667 0 0 1-21.333333 0v-21.333334a10.666667 10.666667 0 0 1 10.666667-10.666666z" fill="#3C64B9" p-id="3198"></path></svg>