<?xml version="1.0" standalone="no"?><!DOCTYPE svg PUBLIC "-//W3C//DTD SVG 1.1//EN" "http://www.w3.org/Graphics/SVG/1.1/DTD/svg11.dtd"><svg t="1594711347537" class="icon" viewBox="0 0 1024 1024" version="1.1" xmlns="http://www.w3.org/2000/svg" p-id="3331" xmlns:xlink="http://www.w3.org/1999/xlink" width="200" height="200"><defs><style type="text/css"></style></defs><path d="M28.064 441.92a255.776 255.776 0 0 0 174.826667 186.997333 256.106667 256.106667 0 0 0 249.472-57.994666 255.52 255.52 0 0 0 74.218666-244.906667 255.776 255.776 0 0 0-174.826666-186.944 256.106667 256.106667 0 0 0-249.429334 57.994667A255.52 255.52 0 0 0 28.053333 441.909333z" fill="#3C64B9" opacity=".5" p-id="3332"></path><path d="M731.754667 282.666667H245.333333c-10.304 0-19.637333 4.181333-26.4 10.933333A37.216 37.216 0 0 0 208 320v426.666667c0 10.304 4.181333 19.637333 10.933333 26.4A37.216 37.216 0 0 0 245.333333 784h533.333334c10.304 0 19.637333-4.181333 26.4-10.933333A37.216 37.216 0 0 0 816 746.666667V363.253333L731.754667 282.666667z" fill="#FFFFFF" p-id="3333"></path><path d="M746.666667 287.082667c-7.36 0-14.026667 2.986667-18.858667 7.808a26.581333 26.581333 0 0 0-7.808 18.858666V352c0 7.36 2.986667 14.026667 7.808 18.858667A26.581333 26.581333 0 0 0 746.666667 378.666667h38.250666a26.666667 26.666667 0 0 0 18.858667-45.525334l-38.250667-38.250666A26.666667 26.666667 0 0 0 746.666667 287.082667z" fill="#FFFFFF" p-id="3334"></path><path d="M504.746667 384.48h49.44c-1.461333 3.338667-2.752 6.208-4.053334 9.066667-9.237333 20.053333-18.474667 39.946667-27.392 60-1.621333 3.658667-3.562667 4.928-7.616 4.928-12.8-0.32-25.781333-0.16-39.552-0.16 9.888-24.981333 19.616-49.493333 29.173334-73.834667z m115.733333-0.16c-2.261333 5.408-4.213333 10.346667-6.154667 15.114667-7.296 17.984-14.912 35.808-22.048 53.952-1.621333 4.138667-3.733333 5.248-7.936 5.248-13.301333-0.32-26.421333-0.16-40.533333-0.16 3.893333-9.706667 7.296-18.773333 10.869333-27.690667 5.504-14.005333 10.858667-27.84 16.533334-41.856 0.810667-1.909333 3.242667-4.448 4.864-4.448 14.581333-0.32 29.013333-0.16 44.405333-0.16z m-136.48 0c-0.490667 1.589333-0.64 2.858667-1.130667 3.978667-9.728 22.122667-19.296 44.074667-29.184 66.037333-0.810667 1.749333-3.562667 3.818667-5.344 3.818667-13.130667 0.32-26.261333 0.16-40.042666 0.16 0.650667-2.069333 1.141333-3.818667 1.781333-5.408 8.426667-21.162667 16.853333-42.336 25.130667-63.658667 1.461333-3.658667 3.082667-5.248 7.296-5.248 13.610667 0.48 27.392 0.32 41.493333 0.32zM352.213333 458.474667c0.650667-13.365333 0.16-26.261333 2.432-38.506667 3.733333-20.213333 21.226667-34.058667 42.794667-35.488 6.165333-0.48 12.32 0 19.285333 0-0.96 2.389333-1.621333 4.298667-2.421333 6.208a4288.384 4288.384 0 0 0-27.402667 62.378667c-1.781333 4.298667-4.053333 5.568-8.586666 5.408-8.106667-0.32-16.213333 0-26.101334 0z m289.504-70.816c14.101333 5.568 23.018667 15.114667 27.392 28.330666 4.373333 13.685333 2.432 27.84 2.592 42.165334h-57.866666c9.408-23.712 18.485333-46.933333 27.882666-70.496zM672 479.978667H352.213333c0 50.293333-0.48 109.685333 0 159.968 0.16 28.330667 13.792 42.346667 42.645334 42.666666 22.197333 0.16 51.701333-0.074667 73.909333-0.074666 51.221333 0 109.376 0.234667 160.597333 0.074666 28.042667 0 42.634667-17.194667 42.634667-42.666666-0.16-49.962667 0-110.154667 0-159.968zM504.522667 620c-12.746667 7.552-24.256 2.933333-24.394667-12.042667a5032.533333 5032.533333 0 0 1 0-63.989333c0-9.749333 5.952-16.693333 16.394667-16.96 1.354667 0.544 4.330667 1.365333 6.912 2.88 16.810667 9.888 33.354667 20.053333 50.304 29.813333 13.429333 7.68 13.834667 24.170667-0.266667 31.445334-16.821333 8.661333-32.544 19.232-48.96 28.853333z" fill="#3C64B9" p-id="3335"></path></svg>