<?xml version="1.0" standalone="no"?><!DOCTYPE svg PUBLIC "-//W3C//DTD SVG 1.1//EN" "http://www.w3.org/Graphics/SVG/1.1/DTD/svg11.dtd"><svg t="1594626897222" class="icon" viewBox="0 0 1024 1024" version="1.1" xmlns="http://www.w3.org/2000/svg" p-id="2386" xmlns:xlink="http://www.w3.org/1999/xlink" width="200" height="200"><defs><style type="text/css"></style></defs><path d="M865.152 832H158.848a31.424 31.424 0 0 0-30.848 32c0 17.664 13.824 32 30.848 32h706.304a31.424 31.424 0 0 0 30.848-32c0-17.664-13.824-32-30.848-32zM228.288 765.888l191.36-81.088a26.88 26.88 0 0 0 8.32-5.504L750.72 356.48a58.752 58.752 0 0 0 0.192-82.88l-64.448-64.512a58.688 58.688 0 0 0-82.944 0.192L280.768 532.096a25.984 25.984 0 0 0-5.504 8.32l-81.152 191.36a25.728 25.728 0 0 0 5.568 28.48c6.912 7.04 17.792 10.176 28.608 5.632z" p-id="2387" fill="#909399"></path></svg>