<?xml version="1.0" standalone="no"?><!DOCTYPE svg PUBLIC "-//W3C//DTD SVG 1.1//EN" "http://www.w3.org/Graphics/SVG/1.1/DTD/svg11.dtd"><svg t="1594626962039" class="icon" viewBox="0 0 1024 1024" version="1.1" xmlns="http://www.w3.org/2000/svg" p-id="2788" xmlns:xlink="http://www.w3.org/1999/xlink" width="200" height="200"><defs><style type="text/css"></style></defs><path d="M1024 204.8H819.2V0H204.8v204.8H0v102.4h102.4v716.8h819.2V307.2h102.4V204.8zM307.2 102.4h409.6v102.4H307.2V102.4zM204.8 921.6V307.2h614.4v614.4H204.8z m153.6-512c-28.2624 0-51.2 16.2816-51.2 36.352v336.896c0 20.0704 22.9376 36.352 51.2 36.352s51.2-16.2816 51.2-36.352v-336.896C409.6 425.8816 386.6624 409.6 358.4 409.6z m307.2 0c-28.2624 0-51.2 16.2816-51.2 36.352v336.896c0 20.0704 22.9376 36.352 51.2 36.352s51.2-16.2816 51.2-36.352v-336.896C716.8 425.8816 693.8624 409.6 665.6 409.6z" p-id="2789" fill="#909399"></path></svg>