<?xml version="1.0" standalone="no"?>
<!DOCTYPE svg PUBLIC "-//W3C//DTD SVG 20010904//EN"
 "http://www.w3.org/TR/2001/REC-SVG-20010904/DTD/svg10.dtd">
<svg version="1.0" xmlns="http://www.w3.org/2000/svg"
 width="150px" height="150px" viewBox="0 0 500.000000 300.000000"
 preserveAspectRatio="xMidYMid meet">

<g transform="translate(0.000000,300.000000) scale(0.100000,-0.100000)"
fill="#000000" stroke="none">
<path d="M4479 2716 c-63 -17 -129 -57 -172 -105 -20 -23 -40 -41 -43 -41 -5
0 0 47 12 113 l6 27 -86 0 c-47 0 -86 -1 -86 -2 0 -10 -47 -268 -89 -491 -28
-147 -51 -269 -51 -272 0 -3 43 -5 95 -5 52 0 95 3 95 8 0 35 73 380 89 424
44 116 135 198 220 198 23 0 51 -5 63 -11 25 -13 48 -67 48 -113 0 -30 -73
-445 -86 -488 -5 -16 4 -18 90 -18 81 0 95 2 100 18 8 27 84 442 91 499 24
190 -111 309 -296 259z"/>
<path style="fill: red" d="M3175 2463 c-311 -28 -613 -176 -776 -381 -75 -94 -145 -233 -176
-350 -22 -82 -26 -118 -26 -232 0 -117 4 -147 27 -225 34 -114 91 -211 170
-289 78 -77 151 -120 274 -162 234 -79 512 -70 850 28 39 11 72 24 72 28 0 4
34 184 75 401 41 217 75 400 75 407 0 10 -66 12 -312 10 l-313 -3 -16 -80 c-8
-44 -18 -95 -22 -112 l-6 -33 164 0 c165 0 165 0 164 -22 -1 -13 -17 -104 -38
-203 l-36 -179 -60 -20 c-46 -14 -91 -19 -190 -19 -199 -1 -318 38 -421 139
-144 140 -174 405 -73 631 154 346 594 507 1021 373 51 -16 93 -28 95 -27 1 2
22 56 47 120 l44 117 -26 14 c-102 52 -394 87 -587 69z"/>
<path style="fill: red" d="M1320 2402 l-35 -3 -108 -372 c-59 -205 -111 -382 -114 -394 l-5 -23
171 1 c197 0 264 -10 346 -54 122 -65 161 -203 94 -336 -95 -191 -381 -254
-663 -147 -37 14 -72 26 -76 26 -8 0 -80 -197 -80 -219 0 -17 91 -57 191 -83
119 -31 357 -31 473 1 312 84 497 302 498 587 0 282 -194 453 -520 458 l-103
1 6 25 c3 14 24 82 46 153 l40 127 309 0 310 0 5 23 c16 70 44 221 41 225 -5
4 -777 8 -826 4z"/>
<path d="M1080 516 c0 -25 26 -66 41 -66 20 0 23 10 13 48 -4 15 -14 22 -30
22 -13 0 -24 -2 -24 -4z"/>
<path d="M1270 360 l0 -160 -40 0 c-33 0 -40 -3 -40 -20 0 -19 7 -20 110 -20
103 0 110 1 110 20 0 17 -7 20 -50 20 l-50 0 0 85 c0 80 1 85 23 90 12 2 31 4
42 2 14 -1 21 5 23 19 3 18 -2 21 -40 20 l-43 -1 -3 53 c-3 44 -6 52 -23 52
-18 0 -19 -8 -19 -160z"/>
<path d="M1860 500 c0 -18 -7 -20 -70 -20 -63 0 -70 -2 -70 -20 0 -18 7 -20
71 -20 67 0 70 -1 67 -22 -3 -21 -9 -23 -80 -26 -60 -2 -78 -6 -78 -17 0 -8 6
-15 13 -16 6 0 41 -1 77 -2 l65 -2 3 -97 c2 -89 4 -98 22 -98 18 0 20 9 22 97
l3 98 70 2 c87 2 82 0 82 18 0 12 -16 15 -79 15 -77 0 -78 0 -78 25 0 24 2 25
70 25 63 0 70 2 70 20 0 18 -7 20 -70 20 -63 0 -70 2 -70 20 0 13 -7 20 -20
20 -13 0 -20 -7 -20 -20z"/>
<path d="M2500 505 c0 -12 -14 -15 -70 -15 -56 0 -70 -3 -70 -15 0 -12 14 -15
70 -15 l70 0 0 -50 0 -50 -75 0 c-60 0 -75 -3 -75 -15 0 -12 15 -15 75 -15
l75 0 0 -85 c0 -84 0 -85 25 -85 25 0 25 1 25 85 l0 85 75 0 c60 0 75 3 75 15
0 12 -15 15 -75 15 l-75 0 0 50 0 50 70 0 c56 0 70 3 70 15 0 12 -14 15 -70
15 -56 0 -70 3 -70 15 0 9 -9 15 -25 15 -16 0 -25 -6 -25 -15z"/>
<path d="M3160 495 c0 -23 -4 -25 -45 -25 -35 0 -43 3 -39 15 5 11 -1 15 -18
15 -21 0 -26 -7 -36 -47 -6 -27 -14 -56 -17 -65 -6 -14 -2 -18 18 -18 20 0 27
6 32 30 6 28 9 30 56 30 l49 0 0 -45 0 -45 -70 0 c-63 0 -70 -2 -70 -20 0 -18
7 -20 71 -20 l70 0 -3 -52 -3 -53 -78 0 c-67 0 -77 -2 -77 -17 0 -16 15 -18
175 -18 149 0 175 2 175 15 0 12 -14 15 -62 15 -81 0 -90 6 -86 61 l3 44 63 3
c55 3 62 5 62 23 0 15 -6 20 -22 19 -13 -1 -42 -2 -66 -1 l-43 1 3 43 3 42 68
3 c59 3 67 5 67 22 0 18 -7 20 -70 20 -68 0 -70 1 -70 25 0 18 -5 25 -20 25
-15 0 -20 -7 -20 -25z"/>
<path d="M3700 455 l0 -65 -30 0 c-31 0 -45 -29 -15 -31 8 -1 21 -2 28 -3 8
-1 13 -30 15 -98 l3 -98 59 0 c50 0 60 3 60 18 0 13 -8 17 -37 17 l-38 0 -3
82 -3 82 33 -3 c28 -2 37 -9 57 -47 13 -24 39 -68 58 -96 30 -44 40 -53 65
-53 l30 0 -22 28 c-42 54 -100 145 -100 158 0 9 16 13 53 13 75 -1 77 -1 71
16 -5 12 -29 15 -125 15 l-119 0 0 65 c0 58 -2 65 -20 65 -18 0 -20 -7 -20
-65z"/>
<path d="M3880 502 c0 -5 -16 -27 -36 -50 l-36 -42 26 0 c17 0 35 13 60 44 20
23 36 46 36 50 0 3 -11 6 -25 6 -14 0 -25 -4 -25 -8z"/>
<path d="M1054 431 c-12 -12 -1 -30 19 -33 21 -3 22 -7 25 -120 l3 -118 34 0
c28 0 35 4 35 20 0 11 -7 20 -15 20 -12 0 -15 20 -15 118 l0 117 -41 0 c-22 0
-43 -2 -45 -4z"/>
<path d="M2401 410 c8 -22 17 -30 34 -30 22 0 22 2 12 30 -8 21 -18 30 -34 30
-20 0 -21 -3 -12 -30z"/>
<path d="M2612 415 c-16 -34 -15 -35 6 -35 11 0 24 11 30 25 16 34 15 35 -6
35 -11 0 -24 -11 -30 -25z"/>
<path d="M1760 312 c0 -11 -9 -45 -20 -77 -25 -72 -25 -75 0 -75 15 0 24 14
40 66 26 84 26 104 0 104 -13 0 -20 -7 -20 -18z"/>
<path d="M1960 312 c0 -11 9 -50 20 -86 17 -52 25 -66 41 -66 22 0 21 3 -11
108 -11 35 -24 58 -34 60 -10 2 -16 -3 -16 -16z"/>
<path d="M2394 253 c-12 -32 -24 -66 -29 -75 -5 -14 -2 -18 14 -18 23 0 55 56
67 119 5 26 3 31 -12 31 -14 0 -25 -15 -40 -57z"/>
<path d="M2600 303 c0 -4 10 -37 22 -75 19 -59 25 -68 46 -68 13 0 22 4 20 8
-1 4 -14 38 -27 75 -18 49 -30 67 -43 67 -10 0 -18 -3 -18 -7z"/>
</g>
</svg>
